<svg width="500" height="500" viewBox="0 0 500 500" fill="none" xmlns="http://www.w3.org/2000/svg">
<g clip-path="url(#clip0_5_2)">
<path d="M500 0H0V500H500V0Z" fill="white"/>
<path d="M500 0H0V500H500V0Z" fill="#3156E8"/>
<path d="M197.647 204.021H225.584L180.23 321.229C179.98 321.844 179.428 322.146 178.584 322.146C177.735 322.146 177.131 321.844 176.772 321.229L122.168 179.167C121.918 178.573 121.949 178.063 122.251 177.646C122.553 177.219 123.069 177 123.793 177H148.48C149.563 177 150.168 177.365 150.293 178.083L178.584 257.188L197.647 204.021Z" fill="white"/>
<path d="M350.06 203.667H378.373L333.185 321.063C332.946 321.786 332.373 322.146 331.456 322.146C330.55 322.146 329.982 321.786 329.748 321.063L288.748 213.458L247.727 321.063C247.487 321.786 246.914 322.146 245.998 322.146C245.091 322.146 244.524 321.786 244.289 321.063L199.289 203.667H227.602L245.914 253.563L274.768 178.083C275.003 177.365 275.545 177 276.393 177H301.081C301.925 177 302.529 177.365 302.893 178.083L331.56 253.563L350.06 203.667Z" fill="white"/>
</g>
<defs>
<clipPath id="clip0_5_2">
<rect width="500" height="500" rx="250" fill="white"/>
</clipPath>
</defs>
</svg>
