<svg width="742" height="152" viewBox="0 0 742 152" fill="none" xmlns="http://www.w3.org/2000/svg">
<g clip-path="url(#clip0_29_15)">
<path d="M741.4 82.7V148.1H716.6V82.7C716.6 66.6 704.2 61.2 694.3 61.2C684.4 61.2 669.5 68.1 669.5 88.8V148.1H644.7V8.8L669.5 0V53.5C679.3 40.8 694.9 39.3 701.2 39.3C711 39.3 741.5 42.7 741.5 82.9L741.4 82.7Z" fill="white"/>
<path d="M162.5 42.6L142.5 148.1H99.2V147.8L83.8 62.6H78.6L63.3 147.8V148.1H20L0 42.6H23.9L40 127.4H45L60 42.6H102.5L117.6 127.4H122.5L138.6 42.6H162.5Z" fill="white"/>
<path d="M278.9 42.6V139.3L254.1 148.1V137.3C244.3 150 228.7 151.5 222.4 151.5C212.6 151.5 182.1 148.1 182.1 107.9V42.6H206.9V108C206.9 124.1 219.3 129.5 229.2 129.5C239.1 129.5 254 122.6 254 101.9V42.6H278.8H278.9Z" fill="white"/>
<path d="M600.9 109.9H625C625 116.8 616.7 151.7 574.7 151.7C532.7 151.7 518.6 127.4 518.6 95.6C518.6 63.8 539.4 39.5 574.7 39.5C610 39.5 625 74.4 625 81.3H600.9C598.7 73.4 591.9 60.8 574.6 60.8C557.3 60.8 544.3 75.8 544.3 95.7C544.3 115.6 555.6 130.6 574.6 130.6C593.6 130.6 598.7 118.1 600.9 110.1V109.9Z" fill="white"/>
<path d="M395.2 82.7V97.7L370.4 106.5V82.6C370.4 66.5 358 61.1 348.1 61.1C338.2 61.1 323.3 68 323.3 88.7V123.3L298.5 132.1V42.6H323.3V53.4C333.1 40.7 348.7 39.2 355.2 39.2C364.9 39.2 395.5 42.6 395.5 82.8H395.4L395.2 82.7Z" fill="white"/>
<path d="M214.6 28.1C220.62 28.1 225.5 23.2199 225.5 17.2C225.5 11.1801 220.62 6.3 214.6 6.3C208.58 6.3 203.7 11.1801 203.7 17.2C203.7 23.2199 208.58 28.1 214.6 28.1Z" fill="white"/>
<path d="M246.2 28.1C252.22 28.1 257.1 23.2199 257.1 17.2C257.1 11.1801 252.22 6.3 246.2 6.3C240.18 6.3 235.3 11.1801 235.3 17.2C235.3 23.2199 240.18 28.1 246.2 28.1Z" fill="white"/>
<path d="M502 73.5H478.4C477.4 66.7 472.2 61.8 465.7 60C457.8 57.9 442.8 57.9 439.5 67.3C436.7 74.7 442 78.2 448.1 80.5C467.7 87.9 501.6 85.1 504.2 113.9C507.2 147.8 469.4 155.7 443.2 150C426 146.3 412.3 134.4 412.4 115.7H436.5C437.2 131.8 458.6 134.6 470.7 130.5C481.5 126.8 483.7 114.6 472.4 109.8C456.4 103 430.9 105.8 419.6 89.5C409.3 74.7 414.8 54.6 429.9 45.8C453.6 32 501.5 39.5 501.8 73.5H501.9H502Z" fill="white"/>
</g>
<defs>
<clipPath id="clip0_29_15">
<rect width="741.4" height="151.7" fill="white"/>
</clipPath>
</defs>
</svg>
