<svg width="156" height="24" viewBox="0 0 156 24" fill="none" xmlns="http://www.w3.org/2000/svg">
<mask id="mask0_95_10" style="mask-type:luminance" maskUnits="userSpaceOnUse" x="0" y="0" width="25" height="24">
<path fill-rule="evenodd" clip-rule="evenodd" d="M0 0.000976562H24.9295V23.4569H0V0.000976562Z" fill="white"/>
</mask>
<g mask="url(#mask0_95_10)">
<path fill-rule="evenodd" clip-rule="evenodd" d="M13.6682 0.737259L16.48 6.34246C16.6755 6.73235 17.0536 7.00259 17.491 7.06489L23.7784 7.96389C24.8797 8.12135 25.3192 9.45257 24.5225 10.2165L19.9729 14.5796C19.6567 14.8829 19.5122 15.3205 19.5871 15.7486L20.6609 21.9096C20.8491 22.9886 19.6978 23.8113 18.7128 23.3022L13.0894 20.3936C12.6984 20.1915 12.2309 20.1915 11.8398 20.3936L6.21642 23.3022C5.23147 23.8118 4.08015 22.9886 4.26836 21.9096L5.34217 15.7486C5.41706 15.3205 5.27252 14.8829 4.95636 14.5796L0.406755 10.2165C-0.389977 9.45214 0.0495463 8.12092 1.15087 7.96389L7.43848 7.06489C7.87582 7.00259 8.25377 6.73235 8.44941 6.34246L11.261 0.737259C11.7529 -0.244451 13.1759 -0.244451 13.6682 0.737259Z" fill="#FBBC05"/>
</g>
<path fill-rule="evenodd" clip-rule="evenodd" d="M46.4021 0.737259L49.2139 6.34246C49.4093 6.73235 49.7875 7.00259 50.2248 7.06489L56.5122 7.96389C57.6135 8.12135 58.0531 9.45257 57.2563 10.2165L52.7067 14.5796C52.3906 14.8829 52.246 15.3205 52.3209 15.7486L53.3947 21.9096C53.5829 22.9886 52.4316 23.8113 51.4467 23.3022L45.8232 20.3936C45.4322 20.1915 44.9647 20.1915 44.5737 20.3936L38.9503 23.3022C37.9653 23.8118 36.814 22.9886 37.0022 21.9096L38.076 15.7486C38.1509 15.3205 38.0064 14.8829 37.6902 14.5796L33.1406 10.2165C32.3439 9.45214 32.7834 8.12092 33.8847 7.96389L40.1723 7.06489C40.6097 7.00259 40.9876 6.73235 41.1832 6.34246L43.9948 0.737259C44.4868 -0.244451 45.9097 -0.244451 46.4021 0.737259Z" fill="#FBBC05"/>
<path fill-rule="evenodd" clip-rule="evenodd" d="M79.1359 0.737259L81.9477 6.34246C82.1431 6.73235 82.5213 7.00259 82.9586 7.06489L89.246 7.96389C90.3474 8.12135 90.7869 9.45257 89.9901 10.2165L85.4405 14.5796C85.1244 14.8829 84.9798 15.3205 85.0547 15.7486L86.1285 21.9096C86.3167 22.9886 85.1654 23.8113 84.1805 23.3022L78.5571 20.3936C78.166 20.1915 77.6985 20.1915 77.3075 20.3936L71.6841 23.3022C70.6991 23.8118 69.5478 22.9886 69.736 21.9096L70.8098 15.7486C70.8847 15.3205 70.7402 14.8829 70.424 14.5796L65.8744 10.2165C65.0777 9.45214 65.5172 8.12092 66.6185 7.96389L72.9061 7.06489C73.3435 7.00259 73.7214 6.73235 73.9171 6.34246L76.7287 0.737259C77.2206 -0.244451 78.6435 -0.244451 79.1359 0.737259Z" fill="#FBBC05"/>
<path fill-rule="evenodd" clip-rule="evenodd" d="M111.87 0.737259L114.681 6.34246C114.877 6.73235 115.255 7.00259 115.692 7.06489L121.98 7.96389C123.081 8.12135 123.521 9.45257 122.724 10.2165L118.174 14.5796C117.858 14.8829 117.714 15.3205 117.788 15.7486L118.862 21.9096C119.05 22.9886 117.899 23.8113 116.914 23.3022L111.291 20.3936C110.9 20.1915 110.432 20.1915 110.041 20.3936L104.418 23.3022C103.433 23.8118 102.282 22.9886 102.47 21.9096L103.544 15.7486C103.618 15.3205 103.474 14.8829 103.158 14.5796L98.6081 10.2165C97.8114 9.45214 98.2509 8.12092 99.3523 7.96389L105.64 7.06489C106.077 7.00259 106.455 6.73235 106.651 6.34246L109.462 0.737259C109.954 -0.244451 111.377 -0.244451 111.87 0.737259Z" fill="#FBBC05"/>
<mask id="mask1_95_10" style="mask-type:luminance" maskUnits="userSpaceOnUse" x="130" y="0" width="26" height="24">
<path fill-rule="evenodd" clip-rule="evenodd" d="M130.935 0H155.865V23.4572H130.935V0Z" fill="white"/>
</mask>
<g mask="url(#mask1_95_10)">
<path fill-rule="evenodd" clip-rule="evenodd" d="M149.84 13.5028C149.164 14.1537 148.856 15.0882 149.015 16.0033L150.026 21.799L144.736 19.0623C144.325 18.8496 143.862 18.7379 143.399 18.7379V1.73517L146.043 7.00891C146.463 7.8424 147.271 8.42026 148.207 8.55344L154.12 9.39767L149.84 13.5028ZM155.458 10.2161C156.255 9.45353 155.814 8.12167 154.714 7.96485L148.426 7.06477C147.989 7.00247 147.611 6.7318 147.415 6.34299L144.602 0.736283C144.111 -0.245428 142.688 -0.245428 142.196 0.736283L139.384 6.34299C139.19 6.7318 138.81 7.00247 138.373 7.06477L132.087 7.96485C130.984 8.12167 130.546 9.45138 131.342 10.2161L135.891 14.579C136.207 14.8819 136.351 15.3202 136.277 15.7476L135.203 21.9086C135.015 22.9891 136.166 23.8118 137.153 23.3027L142.775 20.3941C143.166 20.1922 143.633 20.1922 144.024 20.3941L149.648 23.3027C150.633 23.8118 151.784 22.9891 151.596 21.9086L150.522 15.7476C150.447 15.3202 150.592 14.8819 150.908 14.579L155.458 10.2161Z" fill="#FBBC05"/>
</g>
</svg>
