<svg width="500" height="500" viewBox="0 0 500 500" fill="none" xmlns="http://www.w3.org/2000/svg">
<g clip-path="url(#clip0_3_4)">
<path d="M500 0H0V500H500V0Z" fill="#3156E8"/>
<mask id="mask0_3_4" style="mask-type:luminance" maskUnits="userSpaceOnUse" x="85" y="104" width="330" height="331">
<path d="M85.1354 104.813H414.901V434.579H85.1354V104.813Z" fill="white"/>
</mask>
<g mask="url(#mask0_3_4)">
<mask id="mask1_3_4" style="mask-type:luminance" maskUnits="userSpaceOnUse" x="85" y="104" width="330" height="331">
<path d="M250.021 104.813C158.958 104.813 85.1354 178.636 85.1354 269.698C85.1354 360.756 158.958 434.579 250.021 434.579C341.083 434.579 414.901 360.756 414.901 269.698C414.901 178.636 341.083 104.813 250.021 104.813Z" fill="white"/>
</mask>
<g mask="url(#mask1_3_4)">
<path d="M250.021 104.813C158.958 104.813 85.1354 178.636 85.1354 269.698C85.1354 360.756 158.958 434.579 250.021 434.579C341.083 434.579 414.901 360.756 414.901 269.698C414.901 178.636 341.083 104.813 250.021 104.813Z" stroke="white" stroke-width="20"/>
</g>
</g>
<path d="M70 206.37C70.6094 203.87 71.2708 201.386 71.9792 198.917C72.6927 196.443 73.4583 193.99 74.2708 191.552C75.0885 189.11 75.9531 186.693 76.8646 184.287C77.7813 181.886 78.7448 179.5 79.7604 177.141C80.776 174.776 81.8385 172.438 82.9479 170.12C84.0625 167.802 85.224 165.506 86.4271 163.235C87.6354 160.964 88.8906 158.719 90.1927 156.506C91.4948 154.287 92.8385 152.094 94.2292 149.933C95.625 147.771 97.0625 145.641 98.5417 143.537C100.021 141.438 101.547 139.365 103.115 137.328C104.682 135.287 106.292 133.287 107.938 131.313C109.589 129.339 111.281 127.407 113.01 125.506C114.745 123.605 116.516 121.74 118.323 119.912C120.13 118.084 121.979 116.297 123.859 114.547C125.745 112.792 127.667 111.084 129.62 109.412C131.573 107.745 133.563 106.115 135.583 104.526C137.609 102.938 139.661 101.391 141.75 99.891C143.833 98.391 145.953 96.9326 148.099 95.516C150.25 94.1045 152.422 92.7347 154.63 91.4118C156.833 90.0889 159.063 88.8129 161.323 87.5785C163.578 86.3493 165.865 85.167 168.172 84.0316C170.479 82.8962 172.807 81.8076 175.156 80.7712C177.51 79.7347 179.885 78.7451 182.276 77.8024C184.672 76.8649 187.083 75.9743 189.516 75.1358C191.943 74.2972 194.391 73.5108 196.854 72.7712C199.318 72.0368 201.797 71.3493 204.286 70.7139C206.781 70.0837 209.281 69.5004 211.797 68.9691C214.313 68.4431 216.839 67.9639 219.375 67.5368C221.911 67.1149 224.458 66.7451 227.01 66.4222C229.557 66.1045 232.115 65.8389 234.677 65.6306C237.24 65.417 239.807 65.2556 242.375 65.1514C244.948 65.0472 247.516 64.9951 250.089 65.0004C252.656 65.0004 255.229 65.0576 257.797 65.1618C260.365 65.2712 262.932 65.4379 265.495 65.6514C268.057 65.8649 270.615 66.1358 273.167 66.4587C275.714 66.7816 278.26 67.1566 280.792 67.5837C283.328 68.0108 285.854 68.4899 288.37 69.0264C290.885 69.5576 293.391 70.1462 295.88 70.7816C298.37 71.4222 300.849 72.1097 303.307 72.8493C305.771 73.5889 308.219 74.3806 310.646 75.2243C313.078 76.0681 315.484 76.9587 317.88 77.9014C320.271 78.8441 322.641 79.8389 324.995 80.8806C327.344 81.9222 329.672 83.0108 331.979 84.1514C334.281 85.2868 336.563 86.4743 338.818 87.7087C341.073 88.9431 343.302 90.2243 345.505 91.5472C347.708 92.8754 349.885 94.2451 352.031 95.667C354.177 97.0837 356.292 98.542 358.375 100.047C360.458 101.552 362.51 103.099 364.531 104.693C366.552 106.282 368.536 107.917 370.49 109.589C372.443 111.261 374.359 112.974 376.24 114.73C378.12 116.48 379.964 118.271 381.771 120.105C383.578 121.933 385.344 123.797 387.073 125.703C388.802 127.605 390.49 129.547 392.141 131.521C393.786 133.495 395.391 135.5 396.958 137.542C398.521 139.584 400.042 141.651 401.521 143.756C402.995 145.86 404.432 147.995 405.818 150.162C407.208 152.323 408.552 154.516 409.849 156.735C411.146 158.953 412.401 161.198 413.604 163.474C414.807 165.745 415.964 168.042 417.073 170.36C418.182 172.683 419.24 175.021 420.25 177.386C421.26 179.75 422.224 182.136 423.135 184.537C424.047 186.943 424.906 189.365 425.719 191.808C426.531 194.245 427.292 196.703 428 199.172C428.708 201.646 429.365 204.131 429.969 206.631L363.88 222.631C363.115 219.464 362.219 216.339 361.193 213.25C360.167 210.157 359.01 207.115 357.734 204.125C356.453 201.131 355.052 198.193 353.526 195.318C352 192.438 350.359 189.631 348.599 186.891C346.839 184.151 344.969 181.49 342.99 178.907C341.01 176.323 338.922 173.823 336.734 171.412C334.547 169 332.26 166.688 329.88 164.469C327.495 162.245 325.026 160.131 322.469 158.115C319.911 156.099 317.271 154.198 314.557 152.401C311.839 150.61 309.052 148.927 306.193 147.365C303.339 145.808 300.422 144.365 297.443 143.047C294.469 141.724 291.443 140.532 288.365 139.464C285.286 138.401 282.172 137.464 279.021 136.657C275.865 135.849 272.682 135.172 269.474 134.631C266.26 134.089 263.031 133.683 259.786 133.407C256.547 133.136 253.292 132.995 250.036 132.995C246.781 132.99 243.531 133.125 240.286 133.391C237.042 133.662 233.813 134.063 230.604 134.605C227.391 135.141 224.208 135.808 221.052 136.615C217.896 137.417 214.781 138.349 211.703 139.412C208.625 140.474 205.594 141.662 202.615 142.974C199.635 144.292 196.719 145.73 193.859 147.287C191 148.844 188.214 150.516 185.49 152.308C182.771 154.099 180.13 156 177.573 158.011C175.01 160.021 172.536 162.136 170.151 164.349C167.766 166.568 165.479 168.881 163.286 171.287C161.094 173.693 159.005 176.188 157.021 178.771C155.036 181.349 153.161 184.011 151.401 186.75C149.635 189.485 147.99 192.292 146.464 195.167C144.932 198.042 143.526 200.974 142.24 203.969C140.958 206.959 139.797 210 138.766 213.089C137.734 216.177 136.833 219.302 136.063 222.464L70 206.37Z" fill="#3156E8"/>
<path d="M99.6745 182.436L102.425 177.332L120.112 179.853L108.341 166.395L111.029 161.436L127.508 181.311L125.32 185.374L99.6745 182.436Z" fill="white"/>
<path d="M114.419 156.813L117.586 152.646L132.753 164.167L139.94 154.729L143.711 157.604L133.357 171.208L114.419 156.813Z" fill="white"/>
<path d="M134.533 132.834L138.013 129.501L161.95 139.814L157.992 143.605L152.742 141.23L145.45 148.189L147.554 153.543L143.7 157.23L134.533 132.834ZM148.2 139.168L140.575 135.772L143.617 143.543L148.2 139.168Z" fill="white"/>
<path d="M150.375 118.959L158.125 113.834C159.667 112.808 161.24 112.12 162.854 111.771C164.479 111.412 166.052 111.365 167.583 111.625C169.125 111.891 170.547 112.454 171.854 113.313C173.156 114.178 174.276 115.308 175.208 116.709L175.229 116.75C176.156 118.157 176.761 119.625 177.042 121.167C177.333 122.709 177.302 124.245 176.958 125.771C176.609 127.287 175.958 128.724 175 130.084C174.052 131.448 172.813 132.641 171.271 133.667L163.521 138.792L150.375 118.959ZM157.333 120.021L165.271 131.98L168.667 129.73C169.542 129.146 170.25 128.469 170.792 127.688C171.344 126.912 171.708 126.094 171.875 125.23C172.042 124.355 172.031 123.469 171.854 122.563C171.688 121.646 171.302 120.745 170.708 119.855L170.667 119.792C170.094 118.933 169.417 118.23 168.625 117.688C167.833 117.136 167.005 116.766 166.146 116.584C165.281 116.391 164.38 116.396 163.438 116.605C162.505 116.803 161.604 117.188 160.729 117.771L157.333 120.021Z" fill="white"/>
<path d="M174.642 104.061L179.308 101.728L189.871 123.04L185.204 125.373L174.642 104.061Z" fill="white"/>
<path d="M186.246 98.1882L191.6 96.3965L200.725 103.917L203.454 92.3965L208.788 90.6048L216.371 113.146L211.454 114.813L206.496 100.084L203.392 111.834L203.267 111.876L193.788 104.48L198.704 119.105L193.829 120.73L186.246 98.1882Z" fill="white"/>
<path d="M216.455 89.2256L221.601 88.2464L226.08 111.621L220.934 112.601L216.455 89.2256ZM219.663 81.2881L224.434 82.3506L220.518 86.5589L216.643 87.2881L219.663 81.2881Z" fill="white"/>
<path d="M229.021 86.8688L239.854 86.1188C242.865 85.9105 245.235 86.5459 246.959 88.0147C248.401 89.2803 249.198 91.0511 249.354 93.3272L249.375 93.3897C249.5 95.322 249.136 96.9209 248.292 98.1813C247.443 99.447 246.276 100.421 244.792 101.098L251.188 109.16L245.104 109.598L239.479 102.348L235.354 102.64L235.896 110.244L230.688 110.598L229.021 86.8688ZM240.334 97.6397C241.625 97.5459 242.594 97.1709 243.25 96.5147C243.901 95.8636 244.188 95.0303 244.104 94.0147V93.9522C244.021 92.8167 243.594 91.9886 242.834 91.473C242.068 90.9626 241.042 90.7438 239.75 90.8272L234.563 91.2022L235.042 98.0147L240.334 97.6397Z" fill="white"/>
<path d="M265.697 85.5706L271.176 86.7164L272.739 103.487L281.26 88.7164L285.676 89.6331L287.593 106.571L295.676 91.7998L301.051 92.9039L288.218 114.716L283.76 113.779L281.676 97.4456L273.239 111.612L268.78 110.675L265.697 85.5706Z" fill="white"/>
<path d="M306.567 121.879C303.635 120.587 301.682 118.759 300.713 116.4C299.755 114.04 299.984 111.254 301.401 108.046L306.88 95.6081L311.671 97.7123L306.234 110.025C305.453 111.806 305.276 113.332 305.692 114.608C306.119 115.874 307.072 116.827 308.546 117.483C310.031 118.134 311.38 118.202 312.588 117.691C313.807 117.191 314.802 116.077 315.567 114.337L321.067 101.858L325.859 103.983L320.442 116.254C319.703 117.921 318.843 119.259 317.859 120.275C316.869 121.301 315.781 122.046 314.588 122.504C313.406 122.962 312.135 123.129 310.776 123.004C309.411 122.889 308.01 122.514 306.567 121.879ZM319.984 94.629L324.526 96.629L322.776 100.587L318.234 98.5873L319.984 94.629ZM313.213 91.629L317.755 93.629L316.005 97.5873L311.463 95.5873L313.213 91.629Z" fill="white"/>
<path d="M332.597 107.67L336.618 110.357L337.743 128.711L345.889 116.545L350.18 119.42L336.951 139.191L333.243 136.711L332.055 117.732L323.659 130.316L319.368 127.441L332.597 107.67Z" fill="white"/>
<path d="M345.944 147.883C344.621 146.659 343.538 145.222 342.694 143.571C341.845 141.93 341.329 140.154 341.152 138.238L345.923 137.613C346.142 139.003 346.491 140.269 346.965 141.425C347.434 142.592 348.173 143.639 349.173 144.571C349.975 145.305 350.736 145.738 351.444 145.863C352.152 145.988 352.741 145.79 353.215 145.279L353.277 145.217C353.496 144.967 353.652 144.701 353.736 144.425C353.829 144.159 353.824 143.826 353.715 143.425C353.616 143.019 353.413 142.519 353.111 141.925C352.819 141.326 352.387 140.597 351.819 139.738C351.137 138.727 350.559 137.753 350.09 136.821C349.631 135.878 349.329 134.982 349.194 134.133C349.069 133.274 349.137 132.425 349.402 131.592C349.663 130.758 350.199 129.915 351.006 129.05L351.048 128.988C351.798 128.196 352.616 127.623 353.506 127.258C354.392 126.899 355.324 126.738 356.298 126.779C357.283 126.81 358.262 127.05 359.236 127.508C360.204 127.956 361.142 128.592 362.048 129.425C363.324 130.607 364.319 131.894 365.027 133.279C365.746 134.654 366.22 136.123 366.444 137.675L361.777 138.696C361.486 137.435 361.111 136.3 360.652 135.3C360.194 134.29 359.595 133.435 358.861 132.738C358.111 132.06 357.408 131.691 356.756 131.633C356.116 131.566 355.595 131.753 355.194 132.196L355.131 132.238C354.866 132.519 354.684 132.816 354.59 133.133C354.506 133.441 354.533 133.81 354.673 134.238C354.809 134.67 355.053 135.191 355.402 135.8C355.746 136.399 356.204 137.149 356.777 138.05C357.444 139.081 357.986 140.055 358.402 140.988C358.819 141.93 359.069 142.826 359.152 143.675C359.246 144.519 359.163 145.326 358.902 146.092C358.637 146.868 358.142 147.633 357.423 148.383L357.381 148.446C356.574 149.305 355.699 149.925 354.756 150.3C353.809 150.675 352.845 150.826 351.861 150.758C350.871 150.685 349.871 150.409 348.861 149.925C347.861 149.451 346.887 148.769 345.944 147.883Z" fill="white"/>
<path d="M361.153 164.749C360.08 163.385 359.33 161.921 358.903 160.354C358.487 158.781 358.372 157.234 358.57 155.708C358.763 154.176 359.258 152.708 360.049 151.291C360.851 149.874 361.924 148.645 363.258 147.604L363.299 147.562C364.643 146.51 366.091 145.77 367.633 145.354C369.174 144.926 370.721 144.786 372.278 144.937C373.83 145.093 375.33 145.562 376.778 146.354C378.237 147.145 379.528 148.265 380.653 149.708C381.346 150.583 381.903 151.437 382.32 152.27C382.737 153.104 383.049 153.916 383.258 154.708C383.476 155.499 383.601 156.275 383.633 157.041C383.674 157.817 383.653 158.593 383.57 159.374L378.487 159.124C378.58 157.859 378.513 156.697 378.278 155.645C378.054 154.604 377.575 153.609 376.841 152.666C376.216 151.89 375.487 151.286 374.653 150.854C373.83 150.411 372.966 150.161 372.049 150.104C371.143 150.051 370.237 150.166 369.32 150.458C368.414 150.739 367.554 151.187 366.737 151.812L366.695 151.854C365.903 152.479 365.247 153.208 364.737 154.041C364.237 154.874 363.903 155.734 363.737 156.624C363.58 157.525 363.612 158.426 363.82 159.333C364.028 160.249 364.45 161.109 365.091 161.916C365.924 162.984 366.825 163.734 367.799 164.166C368.768 164.609 369.883 164.921 371.133 165.104L370.549 169.812C369.659 169.739 368.804 169.609 367.987 169.416C367.164 169.218 366.362 168.926 365.57 168.541C364.789 168.15 364.039 167.65 363.32 167.041C362.596 166.426 361.872 165.666 361.153 164.749Z" fill="white"/>
<path d="M389.695 162.92L392.195 167.524L383.903 172.024L388.528 180.524L396.82 176.024L399.299 180.607L378.382 191.961L375.903 187.378L384.299 182.815L379.674 174.315L371.278 178.878L368.778 174.274L389.695 162.92Z" fill="white"/>
<path d="M197.006 235.496H224.944L179.59 352.704C179.34 353.319 178.788 353.621 177.944 353.621C177.095 353.621 176.491 353.319 176.131 352.704L121.527 210.642C121.277 210.048 121.309 209.538 121.611 209.121C121.913 208.694 122.428 208.475 123.152 208.475H147.84C148.923 208.475 149.527 208.84 149.652 209.559L177.944 288.663L197.006 235.496Z" fill="white"/>
<path d="M352.592 235.142H380.904L335.717 352.538C335.477 353.262 334.904 353.621 333.987 353.621C333.081 353.621 332.513 353.262 332.279 352.538L291.279 244.934L250.258 352.538C250.019 353.262 249.446 353.621 248.529 353.621C247.623 353.621 247.055 353.262 246.821 352.538L201.821 235.142H230.133L248.446 285.038L277.3 209.559C277.534 208.84 278.076 208.475 278.925 208.475H303.612C304.456 208.475 305.06 208.84 305.425 209.559L334.092 285.038L352.592 235.142Z" fill="white"/>
</g>
<defs>
<clipPath id="clip0_3_4">
<rect width="500" height="500" rx="250" fill="white"/>
</clipPath>
</defs>
</svg>
